<svg viewBox="0 0 18 21" xmlns="http://www.w3.org/2000/svg" xmlns:xlink="http://www.w3.org/1999/xlink" width="18.000000" height="21.000000" fill="none" customFrame="#000000">
	<path id="" d="M18 8.6317C17.6987 8.96317 17.3571 9.25446 16.9955 9.50558C15.3181 10.6406 13.6306 11.7857 11.9933 12.971C11.1496 13.5938 10.1049 14.3571 9.01005 14.3571L9 14.3571L8.98996 14.3571C7.89509 14.3571 6.85045 13.5938 6.0067 12.971C4.36942 11.7757 2.68192 10.6406 1.01451 9.50558C0.642857 9.25446 0.301339 8.96317 0 8.6317L0 16.6071C0 17.4911 0.723214 18.2143 1.60714 18.2143L16.3929 18.2143C17.2768 18.2143 18 17.4911 18 16.6071L18 8.6317ZM18 5.67857C18 4.79464 17.2667 4.07143 16.3929 4.07143L1.60714 4.07143C0.532366 4.07143 0 4.91518 0 5.89955C0 6.81362 1.01451 7.94866 1.72768 8.4308C3.2846 9.51562 4.86161 10.6004 6.41853 11.6953C7.07143 12.1473 8.17634 13.0714 8.98996 13.0714L9 13.0714L9.01005 13.0714C9.82366 13.0714 10.9286 12.1473 11.5815 11.6953C13.1384 10.6004 14.7154 9.51562 16.2824 8.4308C17.1663 7.81808 18 6.80357 18 5.67857Z" fill="rgb(0,0,0)" fill-rule="nonzero" />
</svg>
