<svg viewBox="0 0 71 46.5" xmlns="http://www.w3.org/2000/svg" xmlns:xlink="http://www.w3.org/1999/xlink" width="71.000000" height="46.500000" fill="none" customFrame="#000000">
	<path id="" d="M35.5 0C22.6562 0 12.25 10.4062 12.25 23.25C12.25 36.0938 22.6562 46.5 35.5 46.5C48.3438 46.5 58.75 36.0938 58.75 23.25C58.75 10.4062 48.3438 0 35.5 0ZM35.5 42C25.0938 42 16.75 33.6562 16.75 23.25C16.75 12.9375 25.0938 4.5 35.5 4.5C45.8125 4.5 54.25 12.9375 54.25 23.25C54.25 33.6562 45.8125 42 35.5 42ZM41.2188 32.25C41.7812 32.625 42.4375 32.5312 42.8125 31.9688L44.5938 29.625C44.9688 29.0625 44.875 28.4062 44.3125 28.0312L38.125 23.4375L38.125 10.125C38.125 9.5625 37.5625 9 37 9L34 9C33.3438 9 32.875 9.5625 32.875 10.125L32.875 25.5938C32.875 25.875 32.9688 26.25 33.25 26.4375L41.2188 32.25Z" fill="rgb(247,101,74)" fill-rule="nonzero" />
</svg>
