<svg viewBox="0 0 71 41" xmlns="http://www.w3.org/2000/svg" xmlns:xlink="http://www.w3.org/1999/xlink" width="71.000000" height="41.000000" fill="none" customFrame="#000000">
	<path id="" d="M55 5L16 5C13.4688 5 11.5 7.0625 11.5 9.5L11.5 36.5C11.5 39.0312 13.4688 41 16 41L55 41C57.4375 41 59.5 39.0312 59.5 36.5L59.5 9.5C59.5 7.0625 57.4375 5 55 5ZM55 9.5L55 13.3438C52.8438 15.125 49.4688 17.75 42.3438 23.375C40.75 24.5938 37.6562 27.5938 35.5 27.5C33.25 27.5938 30.1562 24.5938 28.5625 23.375C21.4375 17.75 18.0625 15.125 16 13.3438L16 9.5L55 9.5ZM16 36.5L16 19.1562C18.0625 20.8438 21.1562 23.2812 25.75 26.9375C27.8125 28.5312 31.4688 32.0938 35.5 32C39.4375 32.0938 43 28.5312 45.1562 26.9375C49.75 23.2812 52.8438 20.8438 55 19.1562L55 36.5L16 36.5Z" fill="rgb(247,101,74)" fill-rule="nonzero" />
</svg>
