<svg viewBox="0 0 71 48.0469" xmlns="http://www.w3.org/2000/svg" xmlns:xlink="http://www.w3.org/1999/xlink" width="71.000000" height="48.046875" fill="none" customFrame="#000000">
	<path id="ï…" d="M35.5 0C25.4688 0 17.5 8.15625 17.5 18C17.5 24.75 19.6562 26.8125 31.6562 45.9375C33.4375 48.75 37.4688 48.75 39.25 45.9375C51.25 26.8125 53.5 24.75 53.5 18C53.5 8.0625 45.3438 0 35.5 0ZM35.5 43.5C23.5 24.375 22 23.1562 22 18C22 10.5938 28 4.5 35.5 4.5C42.9062 4.5 49 10.5938 49 18C49 23.1562 47.5 24.1875 35.5 43.5ZM28 18C28 22.2188 31.2812 25.5 35.5 25.5C39.625 25.5 43 22.2188 43 18C43 13.875 39.625 10.5 35.5 10.5C31.2812 10.5 28 13.875 28 18Z" fill="rgb(247,101,74)" fill-rule="nonzero" />
</svg>
