<svg viewBox="0 0 71 47.9248" xmlns="http://www.w3.org/2000/svg" xmlns:xlink="http://www.w3.org/1999/xlink" width="71.000000" height="47.924805" fill="none" customFrame="#000000">
	<path id="" d="M56.125 2.08105L47.3125 0.112305C45.25 -0.356445 43.1875 0.674805 42.4375 2.5498L38.3125 12.1123C37.5625 13.7998 38.0312 15.8623 39.5312 17.0811L43.2812 20.1748C40.6562 25.0498 36.5312 29.0811 31.6562 31.7998L28.5625 28.0498C27.3438 26.5498 25.2812 26.0811 23.5938 26.8311L14.0312 30.8623C12.1562 31.7061 11.125 33.7686 11.5938 35.8311L13.5625 44.6436C14.0312 46.6123 15.8125 47.9248 17.7812 47.9248C40.75 47.9248 59.5 29.3623 59.5 6.2998C59.5 4.33105 58.0938 2.5498 56.125 2.08105ZM17.9688 43.4248L16 34.9873L25.1875 31.0498L30.4375 37.4248C39.7188 33.0186 44.5 28.2373 48.9062 18.9561L42.5312 13.7061L46.4688 4.51855L55 6.4873C54.9062 26.8311 38.3125 43.3311 17.9688 43.4248Z" fill="rgb(247,101,74)" fill-rule="nonzero" />
</svg>
