<svg viewBox="0 0 60 48" xmlns="http://www.w3.org/2000/svg" xmlns:xlink="http://www.w3.org/1999/xlink" width="60.000000" height="48.000000" fill="none" customFrame="#000000">
	<path id="ï™" d="M22.875 36L19.125 36C18.4688 36 18 36.5625 18 37.125L18 40.875C18 41.5312 18.4688 42 19.125 42L22.875 42C23.4375 42 24 41.5312 24 40.875L24 37.125C24 36.5625 23.4375 36 22.875 36ZM22.875 18L19.125 18C18.4688 18 18 18.5625 18 19.125L18 22.875C18 23.5312 18.4688 24 19.125 24L22.875 24C23.4375 24 24 23.5312 24 22.875L24 19.125C24 18.5625 23.4375 18 22.875 18ZM13.875 18L10.125 18C9.46875 18 9 18.5625 9 19.125L9 22.875C9 23.5312 9.46875 24 10.125 24L13.875 24C14.4375 24 15 23.5312 15 22.875L15 19.125C15 18.5625 14.4375 18 13.875 18ZM13.875 36L10.125 36C9.46875 36 9 36.5625 9 37.125L9 40.875C9 41.5312 9.46875 42 10.125 42L13.875 42C14.4375 42 15 41.5312 15 40.875L15 37.125C15 36.5625 14.4375 36 13.875 36ZM13.875 27L10.125 27C9.46875 27 9 27.5625 9 28.125L9 31.875C9 32.5312 9.46875 33 10.125 33L13.875 33C14.4375 33 15 32.5312 15 31.875L15 28.125C15 27.5625 14.4375 27 13.875 27ZM22.875 27L19.125 27C18.4688 27 18 27.5625 18 28.125L18 31.875C18 32.5312 18.4688 33 19.125 33L22.875 33C23.4375 33 24 32.5312 24 31.875L24 28.125C24 27.5625 23.4375 27 22.875 27ZM49.875 36L46.125 36C45.4688 36 45 36.5625 45 37.125L45 40.875C45 41.5312 45.4688 42 46.125 42L49.875 42C50.4375 42 51 41.5312 51 40.875L51 37.125C51 36.5625 50.4375 36 49.875 36ZM49.875 27L46.125 27C45.4688 27 45 27.5625 45 28.125L45 31.875C45 32.5312 45.4688 33 46.125 33L49.875 33C50.4375 33 51 32.5312 51 31.875L51 28.125C51 27.5625 50.4375 27 49.875 27ZM57.75 18L48 18L48 2.25C48 1.03125 46.9688 0 45.75 0L26.25 0C24.9375 0 24 1.03125 24 2.25L24 9L21 9L21 1.5C21 0.75 20.25 0 19.5 0L18 0C17.1562 0 16.5 0.75 16.5 1.5L16.5 9L10.5 9L10.5 1.5C10.5 0.75 9.75 0 9 0L7.5 0C6.65625 0 6 0.75 6 1.5L6 9L2.25 9C0.9375 9 0 10.0312 0 11.25L0 46.5C0 47.3438 0.65625 48 1.5 48L3 48C3.75 48 4.5 47.3438 4.5 46.5L4.5 13.5L28.5 13.5L28.5 4.5L43.5 4.5L43.5 22.5L55.5 22.5L55.5 46.5C55.5 47.3438 56.1562 48 57 48L58.5 48C59.25 48 60 47.3438 60 46.5L60 20.25C60 19.0312 58.9688 18 57.75 18ZM37.875 9L34.125 9C33.4688 9 33 9.5625 33 10.125L33 13.875C33 14.5312 33.4688 15 34.125 15L37.875 15C38.4375 15 39 14.5312 39 13.875L39 10.125C39 9.5625 38.4375 9 37.875 9ZM37.875 27L34.125 27C33.4688 27 33 27.5625 33 28.125L33 31.875C33 32.5312 33.4688 33 34.125 33L37.875 33C38.4375 33 39 32.5312 39 31.875L39 28.125C39 27.5625 38.4375 27 37.875 27ZM37.875 18L34.125 18C33.4688 18 33 18.5625 33 19.125L33 22.875C33 23.5312 33.4688 24 34.125 24L37.875 24C38.4375 24 39 23.5312 39 22.875L39 19.125C39 18.5625 38.4375 18 37.875 18Z" fill="rgb(247,101,74)" fill-rule="nonzero" />
</svg>
